<mxfile host="app.diagrams.net" agent="Mozilla/5.0 (Windows NT 10.0; Win64; x64) AppleWebKit/537.36 (KHTML, like Gecko) Chrome/122.0.6261.95 Safari/537.36" version="28.2.7">
  <diagram name="Page-1" id="606YLCnGWyRSBOM_ZJrO">
    <mxGraphModel dx="2198" dy="920" grid="1" gridSize="10" guides="1" tooltips="1" connect="1" arrows="1" fold="1" page="1" pageScale="1" pageWidth="850" pageHeight="1100" math="0" shadow="0">
      <root>
        <mxCell id="0" />
        <mxCell id="1" parent="0" />
        <mxCell id="POhZOcZQmTqBrkoReFkT-1" value="&lt;u&gt;Supplier_id&lt;/u&gt;" style="ellipse;whiteSpace=wrap;html=1;" parent="1" vertex="1">
          <mxGeometry x="60" y="40" width="90" height="50" as="geometry" />
        </mxCell>
        <mxCell id="POhZOcZQmTqBrkoReFkT-2" value="Suppelier" style="rounded=0;whiteSpace=wrap;html=1;" parent="1" vertex="1">
          <mxGeometry x="170" y="160" width="120" height="60" as="geometry" />
        </mxCell>
        <mxCell id="POhZOcZQmTqBrkoReFkT-3" value="" style="endArrow=classic;html=1;rounded=0;exitX=0.25;exitY=0;exitDx=0;exitDy=0;entryX=1;entryY=1;entryDx=0;entryDy=0;" parent="1" source="POhZOcZQmTqBrkoReFkT-2" target="POhZOcZQmTqBrkoReFkT-1" edge="1">
          <mxGeometry width="50" height="50" relative="1" as="geometry">
            <mxPoint x="400" y="450" as="sourcePoint" />
            <mxPoint x="450" y="400" as="targetPoint" />
          </mxGeometry>
        </mxCell>
        <mxCell id="POhZOcZQmTqBrkoReFkT-4" value="name" style="ellipse;whiteSpace=wrap;html=1;" parent="1" vertex="1">
          <mxGeometry x="50" y="240" width="80" height="30" as="geometry" />
        </mxCell>
        <mxCell id="POhZOcZQmTqBrkoReFkT-5" value="" style="endArrow=classic;html=1;rounded=0;exitX=0.25;exitY=1;exitDx=0;exitDy=0;entryX=1;entryY=0;entryDx=0;entryDy=0;" parent="1" source="POhZOcZQmTqBrkoReFkT-2" target="POhZOcZQmTqBrkoReFkT-4" edge="1">
          <mxGeometry width="50" height="50" relative="1" as="geometry">
            <mxPoint x="400" y="450" as="sourcePoint" />
            <mxPoint x="450" y="400" as="targetPoint" />
          </mxGeometry>
        </mxCell>
        <mxCell id="POhZOcZQmTqBrkoReFkT-6" value="phone" style="ellipse;whiteSpace=wrap;html=1;" parent="1" vertex="1">
          <mxGeometry x="210" y="40" width="80" height="30" as="geometry" />
        </mxCell>
        <mxCell id="POhZOcZQmTqBrkoReFkT-7" value="" style="endArrow=classic;html=1;rounded=0;exitX=0.75;exitY=0;exitDx=0;exitDy=0;entryX=0.5;entryY=1;entryDx=0;entryDy=0;" parent="1" source="POhZOcZQmTqBrkoReFkT-2" target="POhZOcZQmTqBrkoReFkT-6" edge="1">
          <mxGeometry width="50" height="50" relative="1" as="geometry">
            <mxPoint x="400" y="450" as="sourcePoint" />
            <mxPoint x="450" y="400" as="targetPoint" />
          </mxGeometry>
        </mxCell>
        <mxCell id="POhZOcZQmTqBrkoReFkT-8" value="address" style="ellipse;whiteSpace=wrap;html=1;" parent="1" vertex="1">
          <mxGeometry y="130" width="100" height="40" as="geometry" />
        </mxCell>
        <mxCell id="POhZOcZQmTqBrkoReFkT-9" value="" style="endArrow=classic;html=1;rounded=0;exitX=0;exitY=0.5;exitDx=0;exitDy=0;entryX=0.997;entryY=0.608;entryDx=0;entryDy=0;entryPerimeter=0;" parent="1" source="POhZOcZQmTqBrkoReFkT-2" target="POhZOcZQmTqBrkoReFkT-8" edge="1">
          <mxGeometry width="50" height="50" relative="1" as="geometry">
            <mxPoint x="400" y="450" as="sourcePoint" />
            <mxPoint x="450" y="400" as="targetPoint" />
          </mxGeometry>
        </mxCell>
        <mxCell id="POhZOcZQmTqBrkoReFkT-10" value="email" style="ellipse;whiteSpace=wrap;html=1;" parent="1" vertex="1">
          <mxGeometry x="300" y="100" width="70" height="30" as="geometry" />
        </mxCell>
        <mxCell id="POhZOcZQmTqBrkoReFkT-11" value="" style="endArrow=classic;html=1;rounded=0;exitX=1;exitY=0.5;exitDx=0;exitDy=0;" parent="1" source="POhZOcZQmTqBrkoReFkT-2" target="POhZOcZQmTqBrkoReFkT-10" edge="1">
          <mxGeometry width="50" height="50" relative="1" as="geometry">
            <mxPoint x="400" y="450" as="sourcePoint" />
            <mxPoint x="450" y="400" as="targetPoint" />
          </mxGeometry>
        </mxCell>
        <mxCell id="POhZOcZQmTqBrkoReFkT-13" value="Medicine" style="rounded=0;whiteSpace=wrap;html=1;" parent="1" vertex="1">
          <mxGeometry x="170" y="350" width="120" height="60" as="geometry" />
        </mxCell>
        <mxCell id="POhZOcZQmTqBrkoReFkT-14" value="1" style="text;html=1;whiteSpace=wrap;strokeColor=none;fillColor=none;align=center;verticalAlign=middle;rounded=0;" parent="1" vertex="1">
          <mxGeometry x="210" y="220" width="60" height="30" as="geometry" />
        </mxCell>
        <mxCell id="POhZOcZQmTqBrkoReFkT-15" value="n" style="text;html=1;whiteSpace=wrap;strokeColor=none;fillColor=none;align=center;verticalAlign=middle;rounded=0;" parent="1" vertex="1">
          <mxGeometry x="210" y="310" width="60" height="30" as="geometry" />
        </mxCell>
        <mxCell id="POhZOcZQmTqBrkoReFkT-16" value="" style="endArrow=classic;html=1;rounded=0;exitX=0;exitY=1;exitDx=0;exitDy=0;" parent="1" source="POhZOcZQmTqBrkoReFkT-13" target="POhZOcZQmTqBrkoReFkT-17" edge="1">
          <mxGeometry width="50" height="50" relative="1" as="geometry">
            <mxPoint x="400" y="450" as="sourcePoint" />
            <mxPoint x="120" y="450" as="targetPoint" />
          </mxGeometry>
        </mxCell>
        <mxCell id="POhZOcZQmTqBrkoReFkT-17" value="&lt;u&gt;Medicine_id&lt;/u&gt;" style="ellipse;whiteSpace=wrap;html=1;" parent="1" vertex="1">
          <mxGeometry x="-30" y="470" width="100" height="40" as="geometry" />
        </mxCell>
        <mxCell id="POhZOcZQmTqBrkoReFkT-18" value="name" style="ellipse;whiteSpace=wrap;html=1;" parent="1" vertex="1">
          <mxGeometry x="120" y="490" width="70" height="30" as="geometry" />
        </mxCell>
        <mxCell id="POhZOcZQmTqBrkoReFkT-19" value="" style="endArrow=classic;html=1;rounded=0;exitX=0.086;exitY=1;exitDx=0;exitDy=0;entryX=0.5;entryY=0;entryDx=0;entryDy=0;exitPerimeter=0;" parent="1" source="POhZOcZQmTqBrkoReFkT-13" target="POhZOcZQmTqBrkoReFkT-18" edge="1">
          <mxGeometry width="50" height="50" relative="1" as="geometry">
            <mxPoint x="400" y="450" as="sourcePoint" />
            <mxPoint x="450" y="400" as="targetPoint" />
          </mxGeometry>
        </mxCell>
        <mxCell id="POhZOcZQmTqBrkoReFkT-20" value="quantity" style="ellipse;whiteSpace=wrap;html=1;" parent="1" vertex="1">
          <mxGeometry x="230" y="490" width="60" height="30" as="geometry" />
        </mxCell>
        <mxCell id="POhZOcZQmTqBrkoReFkT-21" value="" style="endArrow=classic;html=1;rounded=0;entryX=0.5;entryY=0;entryDx=0;entryDy=0;exitX=0.5;exitY=1;exitDx=0;exitDy=0;" parent="1" source="POhZOcZQmTqBrkoReFkT-13" target="POhZOcZQmTqBrkoReFkT-20" edge="1">
          <mxGeometry width="50" height="50" relative="1" as="geometry">
            <mxPoint x="270" y="430" as="sourcePoint" />
            <mxPoint x="450" y="400" as="targetPoint" />
          </mxGeometry>
        </mxCell>
        <mxCell id="POhZOcZQmTqBrkoReFkT-22" value="price" style="ellipse;whiteSpace=wrap;html=1;" parent="1" vertex="1">
          <mxGeometry x="-30" y="400" width="70" height="40" as="geometry" />
        </mxCell>
        <mxCell id="POhZOcZQmTqBrkoReFkT-23" value="" style="endArrow=classic;html=1;rounded=0;exitX=0;exitY=0.5;exitDx=0;exitDy=0;entryX=1;entryY=0.5;entryDx=0;entryDy=0;" parent="1" source="POhZOcZQmTqBrkoReFkT-13" target="POhZOcZQmTqBrkoReFkT-22" edge="1">
          <mxGeometry width="50" height="50" relative="1" as="geometry">
            <mxPoint x="400" y="450" as="sourcePoint" />
            <mxPoint x="450" y="400" as="targetPoint" />
          </mxGeometry>
        </mxCell>
        <mxCell id="POhZOcZQmTqBrkoReFkT-24" value="expiry_date" style="ellipse;whiteSpace=wrap;html=1;" parent="1" vertex="1">
          <mxGeometry x="310" y="460" width="100" height="50" as="geometry" />
        </mxCell>
        <mxCell id="POhZOcZQmTqBrkoReFkT-25" value="" style="endArrow=classic;html=1;rounded=0;exitX=1;exitY=1;exitDx=0;exitDy=0;" parent="1" source="POhZOcZQmTqBrkoReFkT-13" target="POhZOcZQmTqBrkoReFkT-24" edge="1">
          <mxGeometry width="50" height="50" relative="1" as="geometry">
            <mxPoint x="289" y="420" as="sourcePoint" />
            <mxPoint x="450" y="400" as="targetPoint" />
          </mxGeometry>
        </mxCell>
        <mxCell id="POhZOcZQmTqBrkoReFkT-26" value="category" style="ellipse;whiteSpace=wrap;html=1;" parent="1" vertex="1">
          <mxGeometry x="330" y="390" width="90" height="30" as="geometry" />
        </mxCell>
        <mxCell id="POhZOcZQmTqBrkoReFkT-27" value="" style="endArrow=classic;html=1;rounded=0;exitX=1;exitY=0.75;exitDx=0;exitDy=0;entryX=0;entryY=0.5;entryDx=0;entryDy=0;" parent="1" source="POhZOcZQmTqBrkoReFkT-13" target="POhZOcZQmTqBrkoReFkT-26" edge="1">
          <mxGeometry width="50" height="50" relative="1" as="geometry">
            <mxPoint x="400" y="450" as="sourcePoint" />
            <mxPoint x="450" y="400" as="targetPoint" />
          </mxGeometry>
        </mxCell>
        <mxCell id="POhZOcZQmTqBrkoReFkT-28" value="description" style="ellipse;whiteSpace=wrap;html=1;" parent="1" vertex="1">
          <mxGeometry x="30" y="350" width="80" height="30" as="geometry" />
        </mxCell>
        <mxCell id="POhZOcZQmTqBrkoReFkT-29" value="" style="endArrow=classic;html=1;rounded=0;exitX=0;exitY=0.25;exitDx=0;exitDy=0;entryX=1;entryY=0.5;entryDx=0;entryDy=0;" parent="1" source="POhZOcZQmTqBrkoReFkT-13" target="POhZOcZQmTqBrkoReFkT-28" edge="1">
          <mxGeometry width="50" height="50" relative="1" as="geometry">
            <mxPoint x="400" y="450" as="sourcePoint" />
            <mxPoint x="450" y="400" as="targetPoint" />
          </mxGeometry>
        </mxCell>
        <mxCell id="POhZOcZQmTqBrkoReFkT-59" style="edgeStyle=orthogonalEdgeStyle;rounded=0;orthogonalLoop=1;jettySize=auto;html=1;entryX=0.5;entryY=1;entryDx=0;entryDy=0;" parent="1" source="POhZOcZQmTqBrkoReFkT-31" target="POhZOcZQmTqBrkoReFkT-40" edge="1">
          <mxGeometry relative="1" as="geometry" />
        </mxCell>
        <mxCell id="POhZOcZQmTqBrkoReFkT-31" value="Customer" style="rounded=0;whiteSpace=wrap;html=1;" parent="1" vertex="1">
          <mxGeometry x="480" y="225" width="120" height="60" as="geometry" />
        </mxCell>
        <mxCell id="POhZOcZQmTqBrkoReFkT-33" value="" style="endArrow=classic;startArrow=classic;html=1;rounded=0;exitX=0.5;exitY=0;exitDx=0;exitDy=0;entryX=0.5;entryY=1;entryDx=0;entryDy=0;" parent="1" source="POhZOcZQmTqBrkoReFkT-13" target="POhZOcZQmTqBrkoReFkT-2" edge="1">
          <mxGeometry width="50" height="50" relative="1" as="geometry">
            <mxPoint x="230" y="354" as="sourcePoint" />
            <mxPoint x="450" y="400" as="targetPoint" />
          </mxGeometry>
        </mxCell>
        <mxCell id="POhZOcZQmTqBrkoReFkT-34" value="" style="endArrow=classic;startArrow=classic;html=1;rounded=0;exitX=1;exitY=0;exitDx=0;exitDy=0;entryX=0;entryY=0.5;entryDx=0;entryDy=0;" parent="1" source="POhZOcZQmTqBrkoReFkT-13" target="POhZOcZQmTqBrkoReFkT-31" edge="1">
          <mxGeometry width="50" height="50" relative="1" as="geometry">
            <mxPoint x="400" y="450" as="sourcePoint" />
            <mxPoint x="450" y="400" as="targetPoint" />
          </mxGeometry>
        </mxCell>
        <mxCell id="POhZOcZQmTqBrkoReFkT-35" value="1" style="text;html=1;whiteSpace=wrap;strokeColor=none;fillColor=none;align=center;verticalAlign=middle;rounded=0;" parent="1" vertex="1">
          <mxGeometry x="390" y="250" width="60" height="30" as="geometry" />
        </mxCell>
        <mxCell id="POhZOcZQmTqBrkoReFkT-36" value="n" style="text;html=1;whiteSpace=wrap;strokeColor=none;fillColor=none;align=center;verticalAlign=middle;rounded=0;" parent="1" vertex="1">
          <mxGeometry x="280" y="310" width="60" height="30" as="geometry" />
        </mxCell>
        <mxCell id="POhZOcZQmTqBrkoReFkT-40" value="&lt;u&gt;Customer_id&lt;/u&gt;" style="ellipse;whiteSpace=wrap;html=1;" parent="1" vertex="1">
          <mxGeometry x="450" y="90" width="90" height="30" as="geometry" />
        </mxCell>
        <mxCell id="POhZOcZQmTqBrkoReFkT-44" style="edgeStyle=orthogonalEdgeStyle;rounded=0;orthogonalLoop=1;jettySize=auto;html=1;exitX=0.69;exitY=0.003;exitDx=0;exitDy=0;exitPerimeter=0;entryX=0.5;entryY=1;entryDx=0;entryDy=0;" parent="1" source="POhZOcZQmTqBrkoReFkT-31" target="POhZOcZQmTqBrkoReFkT-41" edge="1">
          <mxGeometry relative="1" as="geometry">
            <mxPoint x="570" y="140" as="targetPoint" />
          </mxGeometry>
        </mxCell>
        <mxCell id="POhZOcZQmTqBrkoReFkT-41" value="name" style="ellipse;whiteSpace=wrap;html=1;" parent="1" vertex="1">
          <mxGeometry x="570" y="75" width="110" height="55" as="geometry" />
        </mxCell>
        <mxCell id="POhZOcZQmTqBrkoReFkT-47" value="name" style="ellipse;whiteSpace=wrap;html=1;" parent="1" vertex="1">
          <mxGeometry x="520" y="340" width="70" height="30" as="geometry" />
        </mxCell>
        <mxCell id="POhZOcZQmTqBrkoReFkT-48" value="phone" style="ellipse;whiteSpace=wrap;html=1;" parent="1" vertex="1">
          <mxGeometry x="600" y="310" width="80" height="30" as="geometry" />
        </mxCell>
        <mxCell id="POhZOcZQmTqBrkoReFkT-49" value="email" style="ellipse;whiteSpace=wrap;html=1;" parent="1" vertex="1">
          <mxGeometry x="420" y="320" width="70" height="30" as="geometry" />
        </mxCell>
        <mxCell id="POhZOcZQmTqBrkoReFkT-50" value="" style="endArrow=classic;html=1;rounded=0;exitX=0.162;exitY=0.994;exitDx=0;exitDy=0;exitPerimeter=0;entryX=0.785;entryY=0.084;entryDx=0;entryDy=0;entryPerimeter=0;" parent="1" target="POhZOcZQmTqBrkoReFkT-49" edge="1">
          <mxGeometry width="50" height="50" relative="1" as="geometry">
            <mxPoint x="529.44" y="284.64" as="sourcePoint" />
            <mxPoint x="470" y="320" as="targetPoint" />
          </mxGeometry>
        </mxCell>
        <mxCell id="POhZOcZQmTqBrkoReFkT-51" value="" style="endArrow=classic;html=1;rounded=0;exitX=0.629;exitY=1.006;exitDx=0;exitDy=0;exitPerimeter=0;entryX=0.5;entryY=0;entryDx=0;entryDy=0;" parent="1" source="POhZOcZQmTqBrkoReFkT-31" target="POhZOcZQmTqBrkoReFkT-47" edge="1">
          <mxGeometry width="50" height="50" relative="1" as="geometry">
            <mxPoint x="609.72" y="310" as="sourcePoint" />
            <mxPoint x="550" y="335.9" as="targetPoint" />
          </mxGeometry>
        </mxCell>
        <mxCell id="POhZOcZQmTqBrkoReFkT-52" value="" style="endArrow=classic;html=1;rounded=0;exitX=1;exitY=1;exitDx=0;exitDy=0;" parent="1" source="POhZOcZQmTqBrkoReFkT-31" target="POhZOcZQmTqBrkoReFkT-48" edge="1">
          <mxGeometry width="50" height="50" relative="1" as="geometry">
            <mxPoint x="440" y="360" as="sourcePoint" />
            <mxPoint x="490" y="310" as="targetPoint" />
          </mxGeometry>
        </mxCell>
        <mxCell id="POhZOcZQmTqBrkoReFkT-54" value="Employee" style="rounded=0;whiteSpace=wrap;html=1;" parent="1" vertex="1">
          <mxGeometry x="720" y="225" width="120" height="60" as="geometry" />
        </mxCell>
        <mxCell id="POhZOcZQmTqBrkoReFkT-55" value="" style="endArrow=classic;startArrow=classic;html=1;rounded=0;entryX=0;entryY=0.5;entryDx=0;entryDy=0;exitX=1;exitY=0.5;exitDx=0;exitDy=0;" parent="1" source="POhZOcZQmTqBrkoReFkT-31" target="POhZOcZQmTqBrkoReFkT-54" edge="1">
          <mxGeometry width="50" height="50" relative="1" as="geometry">
            <mxPoint x="380" y="440" as="sourcePoint" />
            <mxPoint x="430" y="390" as="targetPoint" />
          </mxGeometry>
        </mxCell>
        <mxCell id="POhZOcZQmTqBrkoReFkT-56" value="1" style="text;html=1;whiteSpace=wrap;strokeColor=none;fillColor=none;align=center;verticalAlign=middle;rounded=0;" parent="1" vertex="1">
          <mxGeometry x="660" y="225" width="60" height="30" as="geometry" />
        </mxCell>
        <mxCell id="POhZOcZQmTqBrkoReFkT-58" value="1" style="text;html=1;whiteSpace=wrap;strokeColor=none;fillColor=none;align=center;verticalAlign=middle;rounded=0;" parent="1" vertex="1">
          <mxGeometry x="590" y="225" width="60" height="30" as="geometry" />
        </mxCell>
        <mxCell id="POhZOcZQmTqBrkoReFkT-60" value="" style="endArrow=classic;html=1;rounded=0;exitX=0.417;exitY=-0.007;exitDx=0;exitDy=0;exitPerimeter=0;" parent="1" source="POhZOcZQmTqBrkoReFkT-54" target="POhZOcZQmTqBrkoReFkT-61" edge="1">
          <mxGeometry width="50" height="50" relative="1" as="geometry">
            <mxPoint x="770" y="220" as="sourcePoint" />
            <mxPoint x="790" y="70" as="targetPoint" />
          </mxGeometry>
        </mxCell>
        <mxCell id="POhZOcZQmTqBrkoReFkT-61" value="&lt;u&gt;Employee_id&lt;/u&gt;" style="ellipse;whiteSpace=wrap;html=1;" parent="1" vertex="1">
          <mxGeometry x="700" y="90" width="90" height="40" as="geometry" />
        </mxCell>
        <mxCell id="POhZOcZQmTqBrkoReFkT-62" value="username" style="ellipse;whiteSpace=wrap;html=1;" parent="1" vertex="1">
          <mxGeometry x="800" y="90" width="80" height="40" as="geometry" />
        </mxCell>
        <mxCell id="POhZOcZQmTqBrkoReFkT-63" value="password" style="ellipse;whiteSpace=wrap;html=1;" parent="1" vertex="1">
          <mxGeometry x="900" y="100" width="100" height="40" as="geometry" />
        </mxCell>
        <mxCell id="POhZOcZQmTqBrkoReFkT-64" value="full_name" style="ellipse;whiteSpace=wrap;html=1;" parent="1" vertex="1">
          <mxGeometry x="865" y="295" width="100" height="35" as="geometry" />
        </mxCell>
        <mxCell id="POhZOcZQmTqBrkoReFkT-65" style="edgeStyle=orthogonalEdgeStyle;rounded=0;orthogonalLoop=1;jettySize=auto;html=1;exitX=0.5;exitY=1;exitDx=0;exitDy=0;" parent="1" source="POhZOcZQmTqBrkoReFkT-62" target="POhZOcZQmTqBrkoReFkT-62" edge="1">
          <mxGeometry relative="1" as="geometry" />
        </mxCell>
        <mxCell id="POhZOcZQmTqBrkoReFkT-66" value="role" style="ellipse;whiteSpace=wrap;html=1;" parent="1" vertex="1">
          <mxGeometry x="795" y="345" width="90" height="35" as="geometry" />
        </mxCell>
        <mxCell id="POhZOcZQmTqBrkoReFkT-67" value="" style="endArrow=classic;html=1;rounded=0;exitX=0.912;exitY=0.013;exitDx=0;exitDy=0;exitPerimeter=0;entryX=0;entryY=1;entryDx=0;entryDy=0;" parent="1" source="POhZOcZQmTqBrkoReFkT-54" target="POhZOcZQmTqBrkoReFkT-62" edge="1">
          <mxGeometry width="50" height="50" relative="1" as="geometry">
            <mxPoint x="680" y="440" as="sourcePoint" />
            <mxPoint x="730" y="390" as="targetPoint" />
          </mxGeometry>
        </mxCell>
        <mxCell id="POhZOcZQmTqBrkoReFkT-68" value="" style="endArrow=classic;html=1;rounded=0;exitX=1;exitY=0.25;exitDx=0;exitDy=0;entryX=0;entryY=0.5;entryDx=0;entryDy=0;" parent="1" source="POhZOcZQmTqBrkoReFkT-54" target="POhZOcZQmTqBrkoReFkT-63" edge="1">
          <mxGeometry width="50" height="50" relative="1" as="geometry">
            <mxPoint x="900" y="252" as="sourcePoint" />
            <mxPoint x="983" y="180" as="targetPoint" />
          </mxGeometry>
        </mxCell>
        <mxCell id="POhZOcZQmTqBrkoReFkT-69" value="" style="endArrow=classic;html=1;rounded=0;exitX=1.008;exitY=0.649;exitDx=0;exitDy=0;exitPerimeter=0;entryX=0;entryY=0.5;entryDx=0;entryDy=0;" parent="1" source="POhZOcZQmTqBrkoReFkT-54" target="POhZOcZQmTqBrkoReFkT-64" edge="1">
          <mxGeometry width="50" height="50" relative="1" as="geometry">
            <mxPoint x="850" y="322" as="sourcePoint" />
            <mxPoint x="933" y="250" as="targetPoint" />
          </mxGeometry>
        </mxCell>
        <mxCell id="POhZOcZQmTqBrkoReFkT-70" value="" style="endArrow=classic;html=1;rounded=0;exitX=0.728;exitY=1;exitDx=0;exitDy=0;exitPerimeter=0;" parent="1" source="POhZOcZQmTqBrkoReFkT-54" target="POhZOcZQmTqBrkoReFkT-66" edge="1">
          <mxGeometry width="50" height="50" relative="1" as="geometry">
            <mxPoint x="830" y="372" as="sourcePoint" />
            <mxPoint x="913" y="300" as="targetPoint" />
            <Array as="points">
              <mxPoint x="807" y="290" />
            </Array>
          </mxGeometry>
        </mxCell>
        <mxCell id="POhZOcZQmTqBrkoReFkT-71" value="Order" style="rounded=0;whiteSpace=wrap;html=1;" parent="1" vertex="1">
          <mxGeometry x="730" y="410" width="120" height="60" as="geometry" />
        </mxCell>
        <mxCell id="POhZOcZQmTqBrkoReFkT-75" value="" style="endArrow=classic;startArrow=classic;html=1;rounded=0;entryX=0;entryY=0;entryDx=0;entryDy=0;exitX=0;exitY=1;exitDx=0;exitDy=0;" parent="1" edge="1">
          <mxGeometry width="50" height="50" relative="1" as="geometry">
            <mxPoint x="770" y="410" as="sourcePoint" />
            <mxPoint x="770" y="285" as="targetPoint" />
          </mxGeometry>
        </mxCell>
        <mxCell id="POhZOcZQmTqBrkoReFkT-76" value="1" style="text;html=1;whiteSpace=wrap;strokeColor=none;fillColor=none;align=center;verticalAlign=middle;rounded=0;" parent="1" vertex="1">
          <mxGeometry x="750" y="300" width="60" height="30" as="geometry" />
        </mxCell>
        <mxCell id="POhZOcZQmTqBrkoReFkT-77" value="&lt;u&gt;Order_id&lt;/u&gt;" style="ellipse;whiteSpace=wrap;html=1;" parent="1" vertex="1">
          <mxGeometry x="610" y="400" width="90" height="40" as="geometry" />
        </mxCell>
        <mxCell id="POhZOcZQmTqBrkoReFkT-79" value="n" style="text;html=1;whiteSpace=wrap;strokeColor=none;fillColor=none;align=center;verticalAlign=middle;rounded=0;" parent="1" vertex="1">
          <mxGeometry x="750" y="380" width="60" height="30" as="geometry" />
        </mxCell>
        <mxCell id="POhZOcZQmTqBrkoReFkT-80" value="" style="endArrow=classic;html=1;rounded=0;exitX=0;exitY=0.25;exitDx=0;exitDy=0;entryX=1;entryY=0.5;entryDx=0;entryDy=0;" parent="1" source="POhZOcZQmTqBrkoReFkT-71" target="POhZOcZQmTqBrkoReFkT-77" edge="1">
          <mxGeometry width="50" height="50" relative="1" as="geometry">
            <mxPoint x="530" y="390" as="sourcePoint" />
            <mxPoint x="580" y="340" as="targetPoint" />
          </mxGeometry>
        </mxCell>
        <mxCell id="POhZOcZQmTqBrkoReFkT-81" value="" style="endArrow=classic;html=1;rounded=0;exitX=0;exitY=0.75;exitDx=0;exitDy=0;" parent="1" source="POhZOcZQmTqBrkoReFkT-71" edge="1">
          <mxGeometry width="50" height="50" relative="1" as="geometry">
            <mxPoint x="530" y="390" as="sourcePoint" />
            <mxPoint x="680" y="500" as="targetPoint" />
          </mxGeometry>
        </mxCell>
        <mxCell id="POhZOcZQmTqBrkoReFkT-82" value="&lt;u&gt;customer_id&lt;/u&gt;" style="ellipse;whiteSpace=wrap;html=1;" parent="1" vertex="1">
          <mxGeometry x="610" y="500" width="100" height="40" as="geometry" />
        </mxCell>
        <mxCell id="POhZOcZQmTqBrkoReFkT-83" value="&lt;u&gt;employee_id&lt;/u&gt;" style="ellipse;whiteSpace=wrap;html=1;" parent="1" vertex="1">
          <mxGeometry x="895" y="490" width="130" height="50" as="geometry" />
        </mxCell>
        <mxCell id="POhZOcZQmTqBrkoReFkT-84" value="" style="endArrow=classic;html=1;rounded=0;exitX=1;exitY=1;exitDx=0;exitDy=0;entryX=0.5;entryY=0;entryDx=0;entryDy=0;" parent="1" source="POhZOcZQmTqBrkoReFkT-71" target="POhZOcZQmTqBrkoReFkT-83" edge="1">
          <mxGeometry width="50" height="50" relative="1" as="geometry">
            <mxPoint x="740" y="520" as="sourcePoint" />
            <mxPoint x="780" y="500" as="targetPoint" />
          </mxGeometry>
        </mxCell>
        <mxCell id="Amn2RVigieVT5l9gmtV0-1" value="order_date" style="ellipse;whiteSpace=wrap;html=1;" vertex="1" parent="1">
          <mxGeometry x="870" y="380" width="100" height="40" as="geometry" />
        </mxCell>
        <mxCell id="Amn2RVigieVT5l9gmtV0-2" value="total_amount" style="ellipse;whiteSpace=wrap;html=1;" vertex="1" parent="1">
          <mxGeometry x="900" y="425" width="120" height="45" as="geometry" />
        </mxCell>
        <mxCell id="Amn2RVigieVT5l9gmtV0-3" value="" style="endArrow=classic;html=1;rounded=0;exitX=1;exitY=0.5;exitDx=0;exitDy=0;entryX=0;entryY=1;entryDx=0;entryDy=0;" edge="1" parent="1" source="POhZOcZQmTqBrkoReFkT-71" target="Amn2RVigieVT5l9gmtV0-1">
          <mxGeometry width="50" height="50" relative="1" as="geometry">
            <mxPoint x="870" y="470" as="sourcePoint" />
            <mxPoint x="885" y="520" as="targetPoint" />
          </mxGeometry>
        </mxCell>
        <mxCell id="Amn2RVigieVT5l9gmtV0-4" value="" style="endArrow=classic;html=1;rounded=0;entryX=-0.003;entryY=0.674;entryDx=0;entryDy=0;entryPerimeter=0;exitX=1;exitY=0.75;exitDx=0;exitDy=0;" edge="1" parent="1" source="POhZOcZQmTqBrkoReFkT-71" target="Amn2RVigieVT5l9gmtV0-2">
          <mxGeometry width="50" height="50" relative="1" as="geometry">
            <mxPoint x="860" y="500" as="sourcePoint" />
            <mxPoint x="885" y="520" as="targetPoint" />
          </mxGeometry>
        </mxCell>
        <mxCell id="Amn2RVigieVT5l9gmtV0-6" value="status" style="ellipse;whiteSpace=wrap;html=1;" vertex="1" parent="1">
          <mxGeometry x="550" y="450" width="95" height="40" as="geometry" />
        </mxCell>
        <mxCell id="Amn2RVigieVT5l9gmtV0-7" value="" style="endArrow=classic;html=1;rounded=0;exitX=0;exitY=0.5;exitDx=0;exitDy=0;entryX=1;entryY=0.5;entryDx=0;entryDy=0;" edge="1" parent="1" source="POhZOcZQmTqBrkoReFkT-71" target="Amn2RVigieVT5l9gmtV0-6">
          <mxGeometry width="50" height="50" relative="1" as="geometry">
            <mxPoint x="530" y="430" as="sourcePoint" />
            <mxPoint x="580" y="380" as="targetPoint" />
          </mxGeometry>
        </mxCell>
        <mxCell id="Amn2RVigieVT5l9gmtV0-9" value="" style="endArrow=classic;startArrow=classic;html=1;rounded=0;entryX=0.5;entryY=1;entryDx=0;entryDy=0;" edge="1" parent="1" target="POhZOcZQmTqBrkoReFkT-71">
          <mxGeometry width="50" height="50" relative="1" as="geometry">
            <mxPoint x="790" y="550" as="sourcePoint" />
            <mxPoint x="640" y="460" as="targetPoint" />
          </mxGeometry>
        </mxCell>
        <mxCell id="Amn2RVigieVT5l9gmtV0-10" value="OrderDetail" style="rounded=0;whiteSpace=wrap;html=1;" vertex="1" parent="1">
          <mxGeometry x="730" y="550" width="120" height="60" as="geometry" />
        </mxCell>
        <mxCell id="Amn2RVigieVT5l9gmtV0-11" value="&lt;u&gt;Medicine_id&lt;/u&gt;" style="ellipse;whiteSpace=wrap;html=1;" vertex="1" parent="1">
          <mxGeometry x="560" y="590" width="110" height="50" as="geometry" />
        </mxCell>
        <mxCell id="Amn2RVigieVT5l9gmtV0-12" value="quantity" style="ellipse;whiteSpace=wrap;html=1;" vertex="1" parent="1">
          <mxGeometry x="580" y="680" width="110" height="50" as="geometry" />
        </mxCell>
        <mxCell id="Amn2RVigieVT5l9gmtV0-13" value="&lt;u&gt;Order_id&lt;/u&gt;" style="ellipse;whiteSpace=wrap;html=1;" vertex="1" parent="1">
          <mxGeometry x="910" y="600" width="110" height="50" as="geometry" />
        </mxCell>
        <mxCell id="Amn2RVigieVT5l9gmtV0-14" value="price" style="ellipse;whiteSpace=wrap;html=1;" vertex="1" parent="1">
          <mxGeometry x="870" y="690" width="110" height="50" as="geometry" />
        </mxCell>
        <mxCell id="Amn2RVigieVT5l9gmtV0-15" value="" style="endArrow=classic;html=1;rounded=0;exitX=0;exitY=0.25;exitDx=0;exitDy=0;entryX=1;entryY=0.5;entryDx=0;entryDy=0;" edge="1" parent="1" source="Amn2RVigieVT5l9gmtV0-10" target="Amn2RVigieVT5l9gmtV0-11">
          <mxGeometry width="50" height="50" relative="1" as="geometry">
            <mxPoint x="590" y="510" as="sourcePoint" />
            <mxPoint x="640" y="460" as="targetPoint" />
          </mxGeometry>
        </mxCell>
        <mxCell id="Amn2RVigieVT5l9gmtV0-16" value="" style="endArrow=classic;html=1;rounded=0;exitX=0;exitY=1;exitDx=0;exitDy=0;" edge="1" parent="1" source="Amn2RVigieVT5l9gmtV0-10" target="Amn2RVigieVT5l9gmtV0-12">
          <mxGeometry width="50" height="50" relative="1" as="geometry">
            <mxPoint x="590" y="510" as="sourcePoint" />
            <mxPoint x="640" y="460" as="targetPoint" />
          </mxGeometry>
        </mxCell>
        <mxCell id="Amn2RVigieVT5l9gmtV0-17" value="" style="endArrow=classic;html=1;rounded=0;exitX=1;exitY=0.25;exitDx=0;exitDy=0;" edge="1" parent="1" source="Amn2RVigieVT5l9gmtV0-10" target="Amn2RVigieVT5l9gmtV0-13">
          <mxGeometry width="50" height="50" relative="1" as="geometry">
            <mxPoint x="590" y="510" as="sourcePoint" />
            <mxPoint x="640" y="460" as="targetPoint" />
          </mxGeometry>
        </mxCell>
        <mxCell id="Amn2RVigieVT5l9gmtV0-19" value="" style="endArrow=classic;html=1;rounded=0;exitX=1;exitY=1;exitDx=0;exitDy=0;" edge="1" parent="1" source="Amn2RVigieVT5l9gmtV0-10" target="Amn2RVigieVT5l9gmtV0-14">
          <mxGeometry width="50" height="50" relative="1" as="geometry">
            <mxPoint x="832" y="740" as="sourcePoint" />
            <mxPoint x="800" y="772" as="targetPoint" />
          </mxGeometry>
        </mxCell>
        <mxCell id="Amn2RVigieVT5l9gmtV0-21" value="ChatLog" style="rounded=0;whiteSpace=wrap;html=1;" vertex="1" parent="1">
          <mxGeometry x="1040" y="205" width="120" height="60" as="geometry" />
        </mxCell>
        <mxCell id="Amn2RVigieVT5l9gmtV0-23" value="" style="endArrow=classic;startArrow=classic;html=1;rounded=0;exitX=0;exitY=0.5;exitDx=0;exitDy=0;entryX=1;entryY=0.5;entryDx=0;entryDy=0;" edge="1" parent="1" source="Amn2RVigieVT5l9gmtV0-21" target="POhZOcZQmTqBrkoReFkT-54">
          <mxGeometry width="50" height="50" relative="1" as="geometry">
            <mxPoint x="590" y="510" as="sourcePoint" />
            <mxPoint x="640" y="460" as="targetPoint" />
          </mxGeometry>
        </mxCell>
        <mxCell id="Amn2RVigieVT5l9gmtV0-24" value="1" style="text;html=1;whiteSpace=wrap;strokeColor=none;fillColor=none;align=center;verticalAlign=middle;rounded=0;" vertex="1" parent="1">
          <mxGeometry x="770" y="470" width="60" height="30" as="geometry" />
        </mxCell>
        <mxCell id="Amn2RVigieVT5l9gmtV0-25" value="n" style="text;html=1;whiteSpace=wrap;strokeColor=none;fillColor=none;align=center;verticalAlign=middle;rounded=0;" vertex="1" parent="1">
          <mxGeometry x="770" y="520" width="60" height="30" as="geometry" />
        </mxCell>
      </root>
    </mxGraphModel>
  </diagram>
</mxfile>
